<svg width="295" height="105" viewBox="0 0 295 105" fill="none" xmlns="http://www.w3.org/2000/svg">
<g filter="url(#filter0_d)">
<rect x="11" width="280" height="87" rx="20" fill="#2A277C"/>
</g>
<g filter="url(#filter1_d)">
<path d="M13.897 95.5521L15.3964 67.8771L39.4669 82.9686L13.897 95.5521Z" fill="#2A277C"/>
</g>
<path d="M41.8047 33H40.4854V28.3994H35.4678V33H34.1553V23.0469H35.4678V27.3262H40.4854V23.0469H41.8047V33ZM47.0068 33.1367C46.0042 33.1367 45.1885 32.8086 44.5596 32.1523C43.9307 31.4915 43.6162 30.6097 43.6162 29.5068V29.2744C43.6162 28.5407 43.7552 27.8867 44.0332 27.3125C44.3158 26.7337 44.7077 26.2826 45.209 25.959C45.7148 25.6309 46.2617 25.4668 46.8496 25.4668C47.8112 25.4668 48.5586 25.7835 49.0918 26.417C49.625 27.0505 49.8916 27.9574 49.8916 29.1377V29.6641H44.8809C44.8991 30.3932 45.111 30.9834 45.5166 31.4346C45.9268 31.8812 46.4463 32.1045 47.0752 32.1045C47.5218 32.1045 47.9001 32.0133 48.21 31.8311C48.5199 31.6488 48.791 31.4072 49.0234 31.1064L49.7959 31.708C49.1761 32.6605 48.2464 33.1367 47.0068 33.1367ZM46.8496 26.5059C46.3392 26.5059 45.9108 26.6927 45.5645 27.0664C45.2181 27.4355 45.0039 27.9551 44.9219 28.625H48.627V28.5293C48.5905 27.8867 48.4173 27.39 48.1074 27.0391C47.7975 26.6836 47.3783 26.5059 46.8496 26.5059ZM53.6855 31.1475L55.4082 25.6035H56.7617L53.7881 34.1416C53.3278 35.3721 52.5964 35.9873 51.5938 35.9873L51.3545 35.9668L50.8828 35.8779V34.8525L51.2246 34.8799C51.653 34.8799 51.9857 34.7933 52.2227 34.6201C52.4642 34.4469 52.6624 34.1302 52.8174 33.6699L53.0977 32.918L50.459 25.6035H51.8398L53.6855 31.1475ZM67.6172 29.3838C67.6172 30.5094 67.3597 31.4163 66.8447 32.1045C66.3298 32.7926 65.6325 33.1367 64.7529 33.1367C63.8551 33.1367 63.1488 32.8519 62.6338 32.2822V35.8438H61.3691V25.6035H62.5244L62.5859 26.4238C63.1009 25.7858 63.8164 25.4668 64.7324 25.4668C65.6211 25.4668 66.3229 25.8018 66.8379 26.4717C67.3574 27.1416 67.6172 28.0736 67.6172 29.2676V29.3838ZM66.3525 29.2402C66.3525 28.4062 66.1748 27.7477 65.8193 27.2646C65.4639 26.7816 64.9762 26.54 64.3564 26.54C63.5908 26.54 63.0166 26.8796 62.6338 27.5586V31.0928C63.012 31.7673 63.5908 32.1045 64.3701 32.1045C64.9762 32.1045 65.457 31.8652 65.8125 31.3867C66.1725 30.9036 66.3525 30.1882 66.3525 29.2402ZM72.2998 33.1367C71.2972 33.1367 70.4814 32.8086 69.8525 32.1523C69.2236 31.4915 68.9092 30.6097 68.9092 29.5068V29.2744C68.9092 28.5407 69.0482 27.8867 69.3262 27.3125C69.6087 26.7337 70.0007 26.2826 70.502 25.959C71.0078 25.6309 71.5547 25.4668 72.1426 25.4668C73.1042 25.4668 73.8516 25.7835 74.3848 26.417C74.918 27.0505 75.1846 27.9574 75.1846 29.1377V29.6641H70.1738C70.1921 30.3932 70.404 30.9834 70.8096 31.4346C71.2197 31.8812 71.7393 32.1045 72.3682 32.1045C72.8148 32.1045 73.193 32.0133 73.5029 31.8311C73.8128 31.6488 74.084 31.4072 74.3164 31.1064L75.0889 31.708C74.4691 32.6605 73.5394 33.1367 72.2998 33.1367ZM72.1426 26.5059C71.6322 26.5059 71.2038 26.6927 70.8574 27.0664C70.5111 27.4355 70.2969 27.9551 70.2148 28.625H73.9199V28.5293C73.8835 27.8867 73.7103 27.39 73.4004 27.0391C73.0905 26.6836 72.6712 26.5059 72.1426 26.5059ZM79.7236 33.1367C78.721 33.1367 77.9053 32.8086 77.2764 32.1523C76.6475 31.4915 76.333 30.6097 76.333 29.5068V29.2744C76.333 28.5407 76.472 27.8867 76.75 27.3125C77.0326 26.7337 77.4245 26.2826 77.9258 25.959C78.4316 25.6309 78.9785 25.4668 79.5664 25.4668C80.528 25.4668 81.2754 25.7835 81.8086 26.417C82.3418 27.0505 82.6084 27.9574 82.6084 29.1377V29.6641H77.5977C77.6159 30.3932 77.8278 30.9834 78.2334 31.4346C78.6436 31.8812 79.1631 32.1045 79.792 32.1045C80.2386 32.1045 80.6169 32.0133 80.9268 31.8311C81.2367 31.6488 81.5078 31.4072 81.7402 31.1064L82.5127 31.708C81.8929 32.6605 80.9632 33.1367 79.7236 33.1367ZM79.5664 26.5059C79.056 26.5059 78.6276 26.6927 78.2812 27.0664C77.9349 27.4355 77.7207 27.9551 77.6387 28.625H81.3438V28.5293C81.3073 27.8867 81.1341 27.39 80.8242 27.0391C80.5143 26.6836 80.0951 26.5059 79.5664 26.5059ZM90.3262 29.3838C90.3262 30.5094 90.0687 31.4163 89.5537 32.1045C89.0387 32.7926 88.3415 33.1367 87.4619 33.1367C86.5641 33.1367 85.8577 32.8519 85.3428 32.2822V35.8438H84.0781V25.6035H85.2334L85.2949 26.4238C85.8099 25.7858 86.5254 25.4668 87.4414 25.4668C88.3301 25.4668 89.0319 25.8018 89.5469 26.4717C90.0664 27.1416 90.3262 28.0736 90.3262 29.2676V29.3838ZM89.0615 29.2402C89.0615 28.4062 88.8838 27.7477 88.5283 27.2646C88.1729 26.7816 87.6852 26.54 87.0654 26.54C86.2998 26.54 85.7256 26.8796 85.3428 27.5586V31.0928C85.721 31.7673 86.2998 32.1045 87.0791 32.1045C87.6852 32.1045 88.166 31.8652 88.5215 31.3867C88.8815 30.9036 89.0615 30.1882 89.0615 29.2402ZM96.2461 31.0381C96.2461 30.6963 96.1162 30.432 95.8564 30.2451C95.6012 30.0537 95.1523 29.8896 94.5098 29.7529C93.8717 29.6162 93.3636 29.4521 92.9854 29.2607C92.6117 29.0693 92.3337 28.8415 92.1514 28.5771C91.9736 28.3128 91.8848 27.9984 91.8848 27.6338C91.8848 27.0277 92.14 26.515 92.6504 26.0957C93.1654 25.6764 93.8216 25.4668 94.6191 25.4668C95.4577 25.4668 96.1367 25.6833 96.6562 26.1162C97.1803 26.5492 97.4424 27.1029 97.4424 27.7773H96.1709C96.1709 27.431 96.0228 27.1325 95.7266 26.8818C95.4349 26.6312 95.0658 26.5059 94.6191 26.5059C94.1589 26.5059 93.7988 26.6061 93.5391 26.8066C93.2793 27.0072 93.1494 27.2692 93.1494 27.5928C93.1494 27.8981 93.2702 28.1283 93.5117 28.2832C93.7533 28.4382 94.1885 28.5863 94.8174 28.7275C95.4508 28.8688 95.9635 29.0374 96.3555 29.2334C96.7474 29.4294 97.0368 29.6663 97.2236 29.9443C97.415 30.2178 97.5107 30.5527 97.5107 30.9492C97.5107 31.61 97.2464 32.141 96.7178 32.542C96.1891 32.9385 95.5033 33.1367 94.6602 33.1367C94.0677 33.1367 93.5436 33.0319 93.0879 32.8223C92.6322 32.6126 92.2744 32.321 92.0146 31.9473C91.7594 31.569 91.6318 31.1611 91.6318 30.7236H92.8965C92.9193 31.1475 93.0879 31.4847 93.4023 31.7354C93.7214 31.9814 94.1406 32.1045 94.6602 32.1045C95.1387 32.1045 95.5215 32.0088 95.8086 31.8174C96.1003 31.6214 96.2461 31.3617 96.2461 31.0381ZM99.1172 34.9824L98.3994 34.4902C98.8278 33.8932 99.0511 33.278 99.0693 32.6445V31.5029H100.307V32.4941C100.307 32.9544 100.193 33.4147 99.9648 33.875C99.7415 34.3353 99.459 34.7044 99.1172 34.9824ZM106.753 33H105.488V25.6035H106.753V33ZM105.386 23.6416C105.386 23.4365 105.447 23.2633 105.57 23.1221C105.698 22.9808 105.885 22.9102 106.131 22.9102C106.377 22.9102 106.564 22.9808 106.691 23.1221C106.819 23.2633 106.883 23.4365 106.883 23.6416C106.883 23.8467 106.819 24.0176 106.691 24.1543C106.564 24.291 106.377 24.3594 106.131 24.3594C105.885 24.3594 105.698 24.291 105.57 24.1543C105.447 24.0176 105.386 23.8467 105.386 23.6416ZM109.405 33V26.5811H108.236V25.6035H109.405V24.8447C109.405 24.0518 109.617 23.4388 110.041 23.0059C110.465 22.5729 111.064 22.3564 111.839 22.3564C112.131 22.3564 112.42 22.3952 112.707 22.4727L112.639 23.498C112.424 23.457 112.197 23.4365 111.955 23.4365C111.545 23.4365 111.228 23.5573 111.005 23.7988C110.782 24.0358 110.67 24.3776 110.67 24.8242V25.6035H112.249V26.5811H110.67V33H109.405ZM119.543 31.1475L121.266 25.6035H122.619L119.646 34.1416C119.185 35.3721 118.454 35.9873 117.451 35.9873L117.212 35.9668L116.74 35.8779V34.8525L117.082 34.8799C117.51 34.8799 117.843 34.7933 118.08 34.6201C118.322 34.4469 118.52 34.1302 118.675 33.6699L118.955 32.918L116.316 25.6035H117.697L119.543 31.1475ZM123.31 29.2334C123.31 28.5088 123.451 27.8571 123.733 27.2783C124.021 26.6995 124.417 26.2529 124.923 25.9385C125.433 25.624 126.014 25.4668 126.666 25.4668C127.673 25.4668 128.487 25.8154 129.106 26.5127C129.731 27.21 130.043 28.1374 130.043 29.2949V29.3838C130.043 30.1038 129.904 30.751 129.626 31.3252C129.353 31.8949 128.958 32.3392 128.443 32.6582C127.933 32.9772 127.345 33.1367 126.68 33.1367C125.677 33.1367 124.864 32.7881 124.239 32.0908C123.619 31.3936 123.31 30.4707 123.31 29.3223V29.2334ZM124.581 29.3838C124.581 30.2041 124.77 30.8626 125.148 31.3594C125.531 31.8561 126.042 32.1045 126.68 32.1045C127.322 32.1045 127.833 31.8538 128.211 31.3525C128.589 30.8467 128.778 30.1403 128.778 29.2334C128.778 28.4222 128.585 27.766 128.197 27.2646C127.814 26.7588 127.304 26.5059 126.666 26.5059C126.042 26.5059 125.538 26.7542 125.155 27.251C124.772 27.7477 124.581 28.4587 124.581 29.3838ZM136.195 32.2686C135.703 32.8473 134.981 33.1367 134.028 33.1367C133.24 33.1367 132.638 32.9089 132.224 32.4531C131.813 31.9928 131.606 31.3138 131.602 30.416V25.6035H132.866V30.3818C132.866 31.5029 133.322 32.0635 134.233 32.0635C135.2 32.0635 135.842 31.7035 136.161 30.9834V25.6035H137.426V33H136.223L136.195 32.2686ZM144.016 25.6035L144.05 26.4238C144.592 25.7858 145.324 25.4668 146.244 25.4668C147.279 25.4668 147.983 25.8633 148.356 26.6562C148.603 26.3008 148.922 26.0137 149.313 25.7949C149.71 25.5762 150.177 25.4668 150.715 25.4668C152.337 25.4668 153.162 26.3258 153.189 28.0439V33H151.925V28.1191C151.925 27.5905 151.804 27.1963 151.562 26.9365C151.321 26.6722 150.915 26.54 150.346 26.54C149.876 26.54 149.487 26.6813 149.177 26.9639C148.867 27.2419 148.687 27.6178 148.637 28.0918V33H147.365V28.1533C147.365 27.0778 146.839 26.54 145.786 26.54C144.957 26.54 144.389 26.8932 144.084 27.5996V33H142.819V25.6035H144.016ZM159.67 33C159.597 32.8542 159.538 32.5944 159.492 32.2207C158.904 32.8314 158.202 33.1367 157.387 33.1367C156.658 33.1367 156.058 32.9316 155.589 32.5215C155.124 32.1068 154.892 31.5827 154.892 30.9492C154.892 30.179 155.183 29.582 155.767 29.1582C156.354 28.7298 157.179 28.5156 158.241 28.5156H159.472V27.9346C159.472 27.4925 159.34 27.1416 159.075 26.8818C158.811 26.6175 158.421 26.4854 157.906 26.4854C157.455 26.4854 157.077 26.5993 156.771 26.8271C156.466 27.055 156.313 27.3307 156.313 27.6543H155.042C155.042 27.2852 155.172 26.9297 155.432 26.5879C155.696 26.2415 156.051 25.9681 156.498 25.7676C156.949 25.5671 157.444 25.4668 157.981 25.4668C158.834 25.4668 159.501 25.681 159.984 26.1094C160.467 26.5332 160.718 27.1188 160.736 27.8662V31.2705C160.736 31.9495 160.823 32.4896 160.996 32.8906V33H159.67ZM157.571 32.0361C157.968 32.0361 158.344 31.9336 158.699 31.7285C159.055 31.5234 159.312 31.2568 159.472 30.9287V29.4111H158.48C156.931 29.4111 156.156 29.8646 156.156 30.7715C156.156 31.168 156.288 31.4779 156.553 31.7012C156.817 31.9245 157.157 32.0361 157.571 32.0361ZM162.411 29.2402C162.411 28.1055 162.68 27.194 163.218 26.5059C163.756 25.8132 164.46 25.4668 165.33 25.4668C166.196 25.4668 166.882 25.763 167.388 26.3555V22.5H168.652V33H167.49L167.429 32.207C166.923 32.8268 166.219 33.1367 165.316 33.1367C164.46 33.1367 163.76 32.7858 163.218 32.084C162.68 31.3822 162.411 30.4661 162.411 29.3359V29.2402ZM163.676 29.3838C163.676 30.2223 163.849 30.8786 164.195 31.3525C164.542 31.8265 165.02 32.0635 165.631 32.0635C166.433 32.0635 167.019 31.7035 167.388 30.9834V27.5859C167.009 26.8887 166.428 26.54 165.645 26.54C165.025 26.54 164.542 26.7793 164.195 27.2578C163.849 27.7363 163.676 28.445 163.676 29.3838ZM173.69 33.1367C172.688 33.1367 171.872 32.8086 171.243 32.1523C170.614 31.4915 170.3 30.6097 170.3 29.5068V29.2744C170.3 28.5407 170.439 27.8867 170.717 27.3125C170.999 26.7337 171.391 26.2826 171.893 25.959C172.398 25.6309 172.945 25.4668 173.533 25.4668C174.495 25.4668 175.242 25.7835 175.775 26.417C176.309 27.0505 176.575 27.9574 176.575 29.1377V29.6641H171.564C171.583 30.3932 171.795 30.9834 172.2 31.4346C172.61 31.8812 173.13 32.1045 173.759 32.1045C174.205 32.1045 174.584 32.0133 174.894 31.8311C175.203 31.6488 175.475 31.4072 175.707 31.1064L176.479 31.708C175.86 32.6605 174.93 33.1367 173.69 33.1367ZM173.533 26.5059C173.023 26.5059 172.594 26.6927 172.248 27.0664C171.902 27.4355 171.688 27.9551 171.605 28.625H175.311V28.5293C175.274 27.8867 175.101 27.39 174.791 27.0391C174.481 26.6836 174.062 26.5059 173.533 26.5059ZM187.766 29.3838C187.766 30.5094 187.508 31.4163 186.993 32.1045C186.478 32.7926 185.781 33.1367 184.901 33.1367C184.004 33.1367 183.297 32.8519 182.782 32.2822V35.8438H181.518V25.6035H182.673L182.734 26.4238C183.249 25.7858 183.965 25.4668 184.881 25.4668C185.77 25.4668 186.471 25.8018 186.986 26.4717C187.506 27.1416 187.766 28.0736 187.766 29.2676V29.3838ZM186.501 29.2402C186.501 28.4062 186.323 27.7477 185.968 27.2646C185.612 26.7816 185.125 26.54 184.505 26.54C183.739 26.54 183.165 26.8796 182.782 27.5586V31.0928C183.16 31.7673 183.739 32.1045 184.519 32.1045C185.125 32.1045 185.605 31.8652 185.961 31.3867C186.321 30.9036 186.501 30.1882 186.501 29.2402ZM190.753 33H189.488V25.6035H190.753V33ZM189.386 23.6416C189.386 23.4365 189.447 23.2633 189.57 23.1221C189.698 22.9808 189.885 22.9102 190.131 22.9102C190.377 22.9102 190.564 22.9808 190.691 23.1221C190.819 23.2633 190.883 23.4365 190.883 23.6416C190.883 23.8467 190.819 24.0176 190.691 24.1543C190.564 24.291 190.377 24.3594 190.131 24.3594C189.885 24.3594 189.698 24.291 189.57 24.1543C189.447 24.0176 189.386 23.8467 189.386 23.6416ZM195.75 32.1045C196.201 32.1045 196.595 31.9678 196.933 31.6943C197.27 31.4209 197.457 31.0791 197.493 30.6689H198.689C198.667 31.0928 198.521 31.4961 198.252 31.8789C197.983 32.2617 197.623 32.5671 197.172 32.7949C196.725 33.0228 196.251 33.1367 195.75 33.1367C194.743 33.1367 193.941 32.8018 193.344 32.1318C192.751 31.4574 192.455 30.5368 192.455 29.3701V29.1582C192.455 28.4382 192.587 27.7979 192.852 27.2373C193.116 26.6768 193.494 26.2415 193.986 25.9316C194.483 25.6217 195.069 25.4668 195.743 25.4668C196.573 25.4668 197.261 25.7152 197.808 26.2119C198.359 26.7087 198.653 27.3535 198.689 28.1465H197.493C197.457 27.668 197.274 27.276 196.946 26.9707C196.623 26.6608 196.222 26.5059 195.743 26.5059C195.101 26.5059 194.602 26.7383 194.246 27.2031C193.895 27.6634 193.72 28.3311 193.72 29.2061V29.4453C193.72 30.2975 193.895 30.9538 194.246 31.4141C194.597 31.8743 195.098 32.1045 195.75 32.1045ZM201.827 23.8125V25.6035H203.208V26.5811H201.827V31.168C201.827 31.4642 201.889 31.6875 202.012 31.8379C202.135 31.9837 202.344 32.0566 202.641 32.0566C202.786 32.0566 202.987 32.0293 203.242 31.9746V33C202.91 33.0911 202.586 33.1367 202.271 33.1367C201.706 33.1367 201.28 32.9658 200.993 32.624C200.706 32.2822 200.562 31.7969 200.562 31.168V26.5811H199.216V25.6035H200.562V23.8125H201.827ZM209.258 32.2686C208.766 32.8473 208.043 33.1367 207.091 33.1367C206.302 33.1367 205.701 32.9089 205.286 32.4531C204.876 31.9928 204.669 31.3138 204.664 30.416V25.6035H205.929V30.3818C205.929 31.5029 206.384 32.0635 207.296 32.0635C208.262 32.0635 208.905 31.7035 209.224 30.9834V25.6035H210.488V33H209.285L209.258 32.2686ZM215.991 26.7383C215.8 26.7064 215.592 26.6904 215.369 26.6904C214.54 26.6904 213.977 27.0436 213.681 27.75V33H212.416V25.6035H213.646L213.667 26.458C214.082 25.7972 214.67 25.4668 215.431 25.4668C215.677 25.4668 215.864 25.4987 215.991 25.5625V26.7383ZM220.093 33.1367C219.09 33.1367 218.274 32.8086 217.646 32.1523C217.017 31.4915 216.702 30.6097 216.702 29.5068V29.2744C216.702 28.5407 216.841 27.8867 217.119 27.3125C217.402 26.7337 217.794 26.2826 218.295 25.959C218.801 25.6309 219.348 25.4668 219.936 25.4668C220.897 25.4668 221.645 25.7835 222.178 26.417C222.711 27.0505 222.978 27.9574 222.978 29.1377V29.6641H217.967C217.985 30.3932 218.197 30.9834 218.603 31.4346C219.013 31.8812 219.532 32.1045 220.161 32.1045C220.608 32.1045 220.986 32.0133 221.296 31.8311C221.606 31.6488 221.877 31.4072 222.109 31.1064L222.882 31.708C222.262 32.6605 221.332 33.1367 220.093 33.1367ZM219.936 26.5059C219.425 26.5059 218.997 26.6927 218.65 27.0664C218.304 27.4355 218.09 27.9551 218.008 28.625H221.713V28.5293C221.676 27.8867 221.503 27.39 221.193 27.0391C220.883 26.6836 220.464 26.5059 219.936 26.5059ZM228.754 31.0381C228.754 30.6963 228.624 30.432 228.364 30.2451C228.109 30.0537 227.66 29.8896 227.018 29.7529C226.38 29.6162 225.871 29.4521 225.493 29.2607C225.119 29.0693 224.841 28.8415 224.659 28.5771C224.481 28.3128 224.393 27.9984 224.393 27.6338C224.393 27.0277 224.648 26.515 225.158 26.0957C225.673 25.6764 226.329 25.4668 227.127 25.4668C227.965 25.4668 228.645 25.6833 229.164 26.1162C229.688 26.5492 229.95 27.1029 229.95 27.7773H228.679C228.679 27.431 228.531 27.1325 228.234 26.8818C227.943 26.6312 227.574 26.5059 227.127 26.5059C226.667 26.5059 226.307 26.6061 226.047 26.8066C225.787 27.0072 225.657 27.2692 225.657 27.5928C225.657 27.8981 225.778 28.1283 226.02 28.2832C226.261 28.4382 226.696 28.5863 227.325 28.7275C227.959 28.8688 228.471 29.0374 228.863 29.2334C229.255 29.4294 229.545 29.6663 229.731 29.9443C229.923 30.2178 230.019 30.5527 230.019 30.9492C230.019 31.61 229.754 32.141 229.226 32.542C228.697 32.9385 228.011 33.1367 227.168 33.1367C226.576 33.1367 226.051 33.0319 225.596 32.8223C225.14 32.6126 224.782 32.321 224.522 31.9473C224.267 31.569 224.14 31.1611 224.14 30.7236H225.404C225.427 31.1475 225.596 31.4847 225.91 31.7354C226.229 31.9814 226.648 32.1045 227.168 32.1045C227.646 32.1045 228.029 32.0088 228.316 31.8174C228.608 31.6214 228.754 31.3617 228.754 31.0381ZM234.804 29.2334C234.804 28.5088 234.945 27.8571 235.228 27.2783C235.515 26.6995 235.911 26.2529 236.417 25.9385C236.927 25.624 237.508 25.4668 238.16 25.4668C239.167 25.4668 239.981 25.8154 240.601 26.5127C241.225 27.21 241.537 28.1374 241.537 29.2949V29.3838C241.537 30.1038 241.398 30.751 241.12 31.3252C240.847 31.8949 240.452 32.3392 239.938 32.6582C239.427 32.9772 238.839 33.1367 238.174 33.1367C237.171 33.1367 236.358 32.7881 235.733 32.0908C235.114 31.3936 234.804 30.4707 234.804 29.3223V29.2334ZM236.075 29.3838C236.075 30.2041 236.264 30.8626 236.643 31.3594C237.025 31.8561 237.536 32.1045 238.174 32.1045C238.816 32.1045 239.327 31.8538 239.705 31.3525C240.083 30.8467 240.272 30.1403 240.272 29.2334C240.272 28.4222 240.079 27.766 239.691 27.2646C239.309 26.7588 238.798 26.5059 238.16 26.5059C237.536 26.5059 237.032 26.7542 236.649 27.251C236.267 27.7477 236.075 28.4587 236.075 29.3838ZM243.745 33V26.5811H242.576V25.6035H243.745V24.8447C243.745 24.0518 243.957 23.4388 244.381 23.0059C244.805 22.5729 245.404 22.3564 246.179 22.3564C246.47 22.3564 246.76 22.3952 247.047 22.4727L246.979 23.498C246.764 23.457 246.536 23.4365 246.295 23.4365C245.885 23.4365 245.568 23.5573 245.345 23.7988C245.121 24.0358 245.01 24.3776 245.01 24.8242V25.6035H246.589V26.5811H245.01V33H243.745ZM35.6729 39.8125V41.6035H37.0537V42.5811H35.6729V47.168C35.6729 47.4642 35.7344 47.6875 35.8574 47.8379C35.9805 47.9837 36.1901 48.0566 36.4863 48.0566C36.6322 48.0566 36.8327 48.0293 37.0879 47.9746V49C36.7552 49.0911 36.4316 49.1367 36.1172 49.1367C35.5521 49.1367 35.126 48.9658 34.8389 48.624C34.5518 48.2822 34.4082 47.7969 34.4082 47.168V42.5811H33.0615V41.6035H34.4082V39.8125H35.6729ZM39.8018 42.499C40.3623 41.8109 41.0915 41.4668 41.9893 41.4668C43.5524 41.4668 44.3408 42.3486 44.3545 44.1123V49H43.0898V44.1055C43.0853 43.5723 42.9622 43.1781 42.7207 42.9229C42.4837 42.6676 42.1123 42.54 41.6064 42.54C41.1963 42.54 40.8363 42.6494 40.5264 42.8682C40.2165 43.0869 39.9749 43.374 39.8018 43.7295V49H38.5371V38.5H39.8018V42.499ZM49.3174 49.1367C48.3148 49.1367 47.499 48.8086 46.8701 48.1523C46.2412 47.4915 45.9268 46.6097 45.9268 45.5068V45.2744C45.9268 44.5407 46.0658 43.8867 46.3438 43.3125C46.6263 42.7337 47.0182 42.2826 47.5195 41.959C48.0254 41.6309 48.5723 41.4668 49.1602 41.4668C50.1217 41.4668 50.8691 41.7835 51.4023 42.417C51.9355 43.0505 52.2021 43.9574 52.2021 45.1377V45.6641H47.1914C47.2096 46.3932 47.4215 46.9834 47.8271 47.4346C48.2373 47.8812 48.7568 48.1045 49.3857 48.1045C49.8324 48.1045 50.2106 48.0133 50.5205 47.8311C50.8304 47.6488 51.1016 47.4072 51.334 47.1064L52.1064 47.708C51.4867 48.6605 50.557 49.1367 49.3174 49.1367ZM49.1602 42.5059C48.6497 42.5059 48.2214 42.6927 47.875 43.0664C47.5286 43.4355 47.3145 43.9551 47.2324 44.625H50.9375V44.5293C50.901 43.8867 50.7279 43.39 50.418 43.0391C50.1081 42.6836 49.6888 42.5059 49.1602 42.5059ZM56.8438 45.2402C56.8438 44.0872 57.1104 43.1712 57.6436 42.4922C58.1768 41.8086 58.8831 41.4668 59.7627 41.4668C60.665 41.4668 61.3691 41.7858 61.875 42.4238L61.9365 41.6035H63.0918V48.8223C63.0918 49.7793 62.807 50.5335 62.2373 51.085C61.6722 51.6364 60.9111 51.9121 59.9541 51.9121C59.4209 51.9121 58.8991 51.7982 58.3887 51.5703C57.8783 51.3424 57.4886 51.0303 57.2197 50.6338L57.876 49.875C58.4183 50.5449 59.0814 50.8799 59.8652 50.8799C60.4805 50.8799 60.959 50.7067 61.3008 50.3604C61.6471 50.014 61.8203 49.5264 61.8203 48.8975V48.2617C61.3145 48.8451 60.624 49.1367 59.749 49.1367C58.8831 49.1367 58.1813 48.7881 57.6436 48.0908C57.1104 47.3936 56.8438 46.4434 56.8438 45.2402ZM58.1152 45.3838C58.1152 46.2178 58.2861 46.874 58.6279 47.3525C58.9697 47.8265 59.4482 48.0635 60.0635 48.0635C60.861 48.0635 61.4466 47.7012 61.8203 46.9766V43.5996C61.4329 42.8932 60.8519 42.54 60.0771 42.54C59.4619 42.54 58.9811 42.7793 58.6348 43.2578C58.2884 43.7363 58.1152 44.445 58.1152 45.3838ZM66.3799 49H65.1152V41.6035H66.3799V49ZM65.0127 39.6416C65.0127 39.4365 65.0742 39.2633 65.1973 39.1221C65.3249 38.9808 65.5117 38.9102 65.7578 38.9102C66.0039 38.9102 66.1908 38.9808 66.3184 39.1221C66.446 39.2633 66.5098 39.4365 66.5098 39.6416C66.5098 39.8467 66.446 40.0176 66.3184 40.1543C66.1908 40.291 66.0039 40.3594 65.7578 40.3594C65.5117 40.3594 65.3249 40.291 65.1973 40.1543C65.0742 40.0176 65.0127 39.8467 65.0127 39.6416ZM68.1094 45.2402C68.1094 44.0872 68.376 43.1712 68.9092 42.4922C69.4424 41.8086 70.1488 41.4668 71.0283 41.4668C71.9307 41.4668 72.6348 41.7858 73.1406 42.4238L73.2021 41.6035H74.3574V48.8223C74.3574 49.7793 74.0726 50.5335 73.5029 51.085C72.9378 51.6364 72.1768 51.9121 71.2197 51.9121C70.6865 51.9121 70.1647 51.7982 69.6543 51.5703C69.1439 51.3424 68.7542 51.0303 68.4854 50.6338L69.1416 49.875C69.6839 50.5449 70.347 50.8799 71.1309 50.8799C71.7461 50.8799 72.2246 50.7067 72.5664 50.3604C72.9128 50.014 73.0859 49.5264 73.0859 48.8975V48.2617C72.5801 48.8451 71.8896 49.1367 71.0146 49.1367C70.1488 49.1367 69.4469 48.7881 68.9092 48.0908C68.376 47.3936 68.1094 46.4434 68.1094 45.2402ZM69.3809 45.3838C69.3809 46.2178 69.5518 46.874 69.8936 47.3525C70.2354 47.8265 70.7139 48.0635 71.3291 48.0635C72.1266 48.0635 72.7122 47.7012 73.0859 46.9766V43.5996C72.6986 42.8932 72.1175 42.54 71.3428 42.54C70.7275 42.54 70.2467 42.7793 69.9004 43.2578C69.554 43.7363 69.3809 44.445 69.3809 45.3838ZM76.2305 50.9824L75.5127 50.4902C75.9411 49.8932 76.1644 49.278 76.1826 48.6445V47.5029H77.4199V48.4941C77.4199 48.9544 77.306 49.4147 77.0781 49.875C76.8548 50.3353 76.5723 50.7044 76.2305 50.9824ZM88.7402 45.3838C88.7402 46.5094 88.4827 47.4163 87.9678 48.1045C87.4528 48.7926 86.7555 49.1367 85.876 49.1367C84.9782 49.1367 84.2718 48.8519 83.7568 48.2822V51.8438H82.4922V41.6035H83.6475L83.709 42.4238C84.224 41.7858 84.9395 41.4668 85.8555 41.4668C86.7441 41.4668 87.446 41.8018 87.9609 42.4717C88.4805 43.1416 88.7402 44.0736 88.7402 45.2676V45.3838ZM87.4756 45.2402C87.4756 44.4062 87.2979 43.7477 86.9424 43.2646C86.5869 42.7816 86.0993 42.54 85.4795 42.54C84.7139 42.54 84.1396 42.8796 83.7568 43.5586V47.0928C84.1351 47.7673 84.7139 48.1045 85.4932 48.1045C86.0993 48.1045 86.5801 47.8652 86.9355 47.3867C87.2956 46.9036 87.4756 46.1882 87.4756 45.2402ZM91.7275 49H90.4629V38.5H91.7275V49ZM96.8271 49.1367C95.8245 49.1367 95.0088 48.8086 94.3799 48.1523C93.751 47.4915 93.4365 46.6097 93.4365 45.5068V45.2744C93.4365 44.5407 93.5755 43.8867 93.8535 43.3125C94.1361 42.7337 94.528 42.2826 95.0293 41.959C95.5352 41.6309 96.082 41.4668 96.6699 41.4668C97.6315 41.4668 98.3789 41.7835 98.9121 42.417C99.4453 43.0505 99.7119 43.9574 99.7119 45.1377V45.6641H94.7012C94.7194 46.3932 94.9313 46.9834 95.3369 47.4346C95.7471 47.8812 96.2666 48.1045 96.8955 48.1045C97.3421 48.1045 97.7204 48.0133 98.0303 47.8311C98.3402 47.6488 98.6113 47.4072 98.8438 47.1064L99.6162 47.708C98.9964 48.6605 98.0667 49.1367 96.8271 49.1367ZM96.6699 42.5059C96.1595 42.5059 95.7311 42.6927 95.3848 43.0664C95.0384 43.4355 94.8242 43.9551 94.7422 44.625H98.4473V44.5293C98.4108 43.8867 98.2376 43.39 97.9277 43.0391C97.6178 42.6836 97.1986 42.5059 96.6699 42.5059ZM105.748 49C105.675 48.8542 105.616 48.5944 105.57 48.2207C104.982 48.8314 104.281 49.1367 103.465 49.1367C102.736 49.1367 102.136 48.9316 101.667 48.5215C101.202 48.1068 100.97 47.5827 100.97 46.9492C100.97 46.179 101.261 45.582 101.845 45.1582C102.433 44.7298 103.257 44.5156 104.319 44.5156H105.55V43.9346C105.55 43.4925 105.418 43.1416 105.153 42.8818C104.889 42.6175 104.499 42.4854 103.984 42.4854C103.533 42.4854 103.155 42.5993 102.85 42.8271C102.544 43.055 102.392 43.3307 102.392 43.6543H101.12C101.12 43.2852 101.25 42.9297 101.51 42.5879C101.774 42.2415 102.13 41.9681 102.576 41.7676C103.027 41.5671 103.522 41.4668 104.06 41.4668C104.912 41.4668 105.579 41.681 106.062 42.1094C106.546 42.5332 106.796 43.1188 106.814 43.8662V47.2705C106.814 47.9495 106.901 48.4896 107.074 48.8906V49H105.748ZM103.649 48.0361C104.046 48.0361 104.422 47.9336 104.777 47.7285C105.133 47.5234 105.39 47.2568 105.55 46.9287V45.4111H104.559C103.009 45.4111 102.234 45.8646 102.234 46.7715C102.234 47.168 102.367 47.4779 102.631 47.7012C102.895 47.9245 103.235 48.0361 103.649 48.0361ZM113.104 47.0381C113.104 46.6963 112.974 46.432 112.714 46.2451C112.459 46.0537 112.01 45.8896 111.367 45.7529C110.729 45.6162 110.221 45.4521 109.843 45.2607C109.469 45.0693 109.191 44.8415 109.009 44.5771C108.831 44.3128 108.742 43.9984 108.742 43.6338C108.742 43.0277 108.997 42.515 109.508 42.0957C110.023 41.6764 110.679 41.4668 111.477 41.4668C112.315 41.4668 112.994 41.6833 113.514 42.1162C114.038 42.5492 114.3 43.1029 114.3 43.7773H113.028C113.028 43.431 112.88 43.1325 112.584 42.8818C112.292 42.6312 111.923 42.5059 111.477 42.5059C111.016 42.5059 110.656 42.6061 110.396 42.8066C110.137 43.0072 110.007 43.2692 110.007 43.5928C110.007 43.8981 110.128 44.1283 110.369 44.2832C110.611 44.4382 111.046 44.5863 111.675 44.7275C112.308 44.8688 112.821 45.0374 113.213 45.2334C113.605 45.4294 113.894 45.6663 114.081 45.9443C114.272 46.2178 114.368 46.5527 114.368 46.9492C114.368 47.61 114.104 48.141 113.575 48.542C113.047 48.9385 112.361 49.1367 111.518 49.1367C110.925 49.1367 110.401 49.0319 109.945 48.8223C109.49 48.6126 109.132 48.321 108.872 47.9473C108.617 47.569 108.489 47.1611 108.489 46.7236H109.754C109.777 47.1475 109.945 47.4847 110.26 47.7354C110.579 47.9814 110.998 48.1045 111.518 48.1045C111.996 48.1045 112.379 48.0088 112.666 47.8174C112.958 47.6214 113.104 47.3617 113.104 47.0381ZM119.085 49.1367C118.082 49.1367 117.267 48.8086 116.638 48.1523C116.009 47.4915 115.694 46.6097 115.694 45.5068V45.2744C115.694 44.5407 115.833 43.8867 116.111 43.3125C116.394 42.7337 116.786 42.2826 117.287 41.959C117.793 41.6309 118.34 41.4668 118.928 41.4668C119.889 41.4668 120.637 41.7835 121.17 42.417C121.703 43.0505 121.97 43.9574 121.97 45.1377V45.6641H116.959C116.977 46.3932 117.189 46.9834 117.595 47.4346C118.005 47.8812 118.524 48.1045 119.153 48.1045C119.6 48.1045 119.978 48.0133 120.288 47.8311C120.598 47.6488 120.869 47.4072 121.102 47.1064L121.874 47.708C121.254 48.6605 120.325 49.1367 119.085 49.1367ZM118.928 42.5059C118.417 42.5059 117.989 42.6927 117.643 43.0664C117.296 43.4355 117.082 43.9551 117 44.625H120.705V44.5293C120.669 43.8867 120.495 43.39 120.186 43.0391C119.876 42.6836 119.456 42.5059 118.928 42.5059ZM133.16 45.3838C133.16 46.5094 132.903 47.4163 132.388 48.1045C131.873 48.7926 131.175 49.1367 130.296 49.1367C129.398 49.1367 128.692 48.8519 128.177 48.2822V51.8438H126.912V41.6035H128.067L128.129 42.4238C128.644 41.7858 129.359 41.4668 130.275 41.4668C131.164 41.4668 131.866 41.8018 132.381 42.4717C132.9 43.1416 133.16 44.0736 133.16 45.2676V45.3838ZM131.896 45.2402C131.896 44.4062 131.718 43.7477 131.362 43.2646C131.007 42.7816 130.519 42.54 129.899 42.54C129.134 42.54 128.56 42.8796 128.177 43.5586V47.0928C128.555 47.7673 129.134 48.1045 129.913 48.1045C130.519 48.1045 131 47.8652 131.355 47.3867C131.715 46.9036 131.896 46.1882 131.896 45.2402ZM139.34 48.2686C138.848 48.8473 138.125 49.1367 137.173 49.1367C136.384 49.1367 135.783 48.9089 135.368 48.4531C134.958 47.9928 134.751 47.3138 134.746 46.416V41.6035H136.011V46.3818C136.011 47.5029 136.466 48.0635 137.378 48.0635C138.344 48.0635 138.987 47.7035 139.306 46.9834V41.6035H140.57V49H139.367L139.34 48.2686ZM144.214 39.8125V41.6035H145.595V42.5811H144.214V47.168C144.214 47.4642 144.275 47.6875 144.398 47.8379C144.521 47.9837 144.731 48.0566 145.027 48.0566C145.173 48.0566 145.374 48.0293 145.629 47.9746V49C145.296 49.0911 144.973 49.1367 144.658 49.1367C144.093 49.1367 143.667 48.9658 143.38 48.624C143.093 48.2822 142.949 47.7969 142.949 47.168V42.5811H141.603V41.6035H142.949V39.8125H144.214ZM152.267 39.8125V41.6035H153.647V42.5811H152.267V47.168C152.267 47.4642 152.328 47.6875 152.451 47.8379C152.574 47.9837 152.784 48.0566 153.08 48.0566C153.226 48.0566 153.426 48.0293 153.682 47.9746V49C153.349 49.0911 153.025 49.1367 152.711 49.1367C152.146 49.1367 151.72 48.9658 151.433 48.624C151.146 48.2822 151.002 47.7969 151.002 47.168V42.5811H149.655V41.6035H151.002V39.8125H152.267ZM156.396 42.499C156.956 41.8109 157.685 41.4668 158.583 41.4668C160.146 41.4668 160.935 42.3486 160.948 44.1123V49H159.684V44.1055C159.679 43.5723 159.556 43.1781 159.314 42.9229C159.077 42.6676 158.706 42.54 158.2 42.54C157.79 42.54 157.43 42.6494 157.12 42.8682C156.81 43.0869 156.569 43.374 156.396 43.7295V49H155.131V38.5H156.396V42.499ZM165.911 49.1367C164.909 49.1367 164.093 48.8086 163.464 48.1523C162.835 47.4915 162.521 46.6097 162.521 45.5068V45.2744C162.521 44.5407 162.66 43.8867 162.938 43.3125C163.22 42.7337 163.612 42.2826 164.113 41.959C164.619 41.6309 165.166 41.4668 165.754 41.4668C166.715 41.4668 167.463 41.7835 167.996 42.417C168.529 43.0505 168.796 43.9574 168.796 45.1377V45.6641H163.785C163.803 46.3932 164.015 46.9834 164.421 47.4346C164.831 47.8812 165.351 48.1045 165.979 48.1045C166.426 48.1045 166.804 48.0133 167.114 47.8311C167.424 47.6488 167.695 47.4072 167.928 47.1064L168.7 47.708C168.08 48.6605 167.151 49.1367 165.911 49.1367ZM165.754 42.5059C165.243 42.5059 164.815 42.6927 164.469 43.0664C164.122 43.4355 163.908 43.9551 163.826 44.625H167.531V44.5293C167.495 43.8867 167.322 43.39 167.012 43.0391C166.702 42.6836 166.283 42.5059 165.754 42.5059ZM171.455 41.6035L171.489 42.4238C172.032 41.7858 172.763 41.4668 173.684 41.4668C174.718 41.4668 175.422 41.8633 175.796 42.6562C176.042 42.3008 176.361 42.0137 176.753 41.7949C177.149 41.5762 177.617 41.4668 178.154 41.4668C179.777 41.4668 180.602 42.3258 180.629 44.0439V49H179.364V44.1191C179.364 43.5905 179.243 43.1963 179.002 42.9365C178.76 42.6722 178.355 42.54 177.785 42.54C177.316 42.54 176.926 42.6813 176.616 42.9639C176.306 43.2419 176.126 43.6178 176.076 44.0918V49H174.805V44.1533C174.805 43.0778 174.278 42.54 173.226 42.54C172.396 42.54 171.829 42.8932 171.523 43.5996V49H170.259V41.6035H171.455ZM187.28 42.499C187.841 41.8109 188.57 41.4668 189.468 41.4668C191.031 41.4668 191.819 42.3486 191.833 44.1123V49H190.568V44.1055C190.564 43.5723 190.441 43.1781 190.199 42.9229C189.962 42.6676 189.591 42.54 189.085 42.54C188.675 42.54 188.315 42.6494 188.005 42.8682C187.695 43.0869 187.453 43.374 187.28 43.7295V49H186.016V38.5H187.28V42.499ZM196.796 49.1367C195.793 49.1367 194.978 48.8086 194.349 48.1523C193.72 47.4915 193.405 46.6097 193.405 45.5068V45.2744C193.405 44.5407 193.544 43.8867 193.822 43.3125C194.105 42.7337 194.497 42.2826 194.998 41.959C195.504 41.6309 196.051 41.4668 196.639 41.4668C197.6 41.4668 198.348 41.7835 198.881 42.417C199.414 43.0505 199.681 43.9574 199.681 45.1377V45.6641H194.67C194.688 46.3932 194.9 46.9834 195.306 47.4346C195.716 47.8812 196.235 48.1045 196.864 48.1045C197.311 48.1045 197.689 48.0133 197.999 47.8311C198.309 47.6488 198.58 47.4072 198.812 47.1064L199.585 47.708C198.965 48.6605 198.035 49.1367 196.796 49.1367ZM196.639 42.5059C196.128 42.5059 195.7 42.6927 195.354 43.0664C195.007 43.4355 194.793 43.9551 194.711 44.625H198.416V44.5293C198.38 43.8867 198.206 43.39 197.896 43.0391C197.587 42.6836 197.167 42.5059 196.639 42.5059ZM204.726 42.7383C204.534 42.7064 204.327 42.6904 204.104 42.6904C203.274 42.6904 202.711 43.0436 202.415 43.75V49H201.15V41.6035H202.381L202.401 42.458C202.816 41.7972 203.404 41.4668 204.165 41.4668C204.411 41.4668 204.598 41.4987 204.726 41.5625V42.7383ZM208.827 49.1367C207.825 49.1367 207.009 48.8086 206.38 48.1523C205.751 47.4915 205.437 46.6097 205.437 45.5068V45.2744C205.437 44.5407 205.576 43.8867 205.854 43.3125C206.136 42.7337 206.528 42.2826 207.029 41.959C207.535 41.6309 208.082 41.4668 208.67 41.4668C209.632 41.4668 210.379 41.7835 210.912 42.417C211.445 43.0505 211.712 43.9574 211.712 45.1377V45.6641H206.701C206.719 46.3932 206.931 46.9834 207.337 47.4346C207.747 47.8812 208.267 48.1045 208.896 48.1045C209.342 48.1045 209.72 48.0133 210.03 47.8311C210.34 47.6488 210.611 47.4072 210.844 47.1064L211.616 47.708C210.996 48.6605 210.067 49.1367 208.827 49.1367ZM208.67 42.5059C208.16 42.5059 207.731 42.6927 207.385 43.0664C207.038 43.4355 206.824 43.9551 206.742 44.625H210.447V44.5293C210.411 43.8867 210.238 43.39 209.928 43.0391C209.618 42.6836 209.199 42.5059 208.67 42.5059ZM213.141 48.3369C213.141 48.1182 213.204 47.9359 213.332 47.79C213.464 47.6442 213.66 47.5713 213.92 47.5713C214.18 47.5713 214.376 47.6442 214.508 47.79C214.645 47.9359 214.713 48.1182 214.713 48.3369C214.713 48.5465 214.645 48.722 214.508 48.8633C214.376 49.0046 214.18 49.0752 213.92 49.0752C213.66 49.0752 213.464 49.0046 213.332 48.8633C213.204 48.722 213.141 48.5465 213.141 48.3369ZM213.147 42.3008C213.147 42.082 213.211 41.8997 213.339 41.7539C213.471 41.6081 213.667 41.5352 213.927 41.5352C214.187 41.5352 214.382 41.6081 214.515 41.7539C214.651 41.8997 214.72 42.082 214.72 42.3008C214.72 42.5104 214.651 42.6859 214.515 42.8271C214.382 42.9684 214.187 43.0391 213.927 43.0391C213.667 43.0391 213.471 42.9684 213.339 42.8271C213.211 42.6859 213.147 42.5104 213.147 42.3008Z" fill="white"/>
<path d="M40.2051 61.3838C40.2051 62.5094 39.9476 63.4163 39.4326 64.1045C38.9176 64.7926 38.2204 65.1367 37.3408 65.1367C36.443 65.1367 35.7367 64.8519 35.2217 64.2822V67.8438H33.957V57.6035H35.1123L35.1738 58.4238C35.6888 57.7858 36.4043 57.4668 37.3203 57.4668C38.209 57.4668 38.9108 57.8018 39.4258 58.4717C39.9453 59.1416 40.2051 60.0736 40.2051 61.2676V61.3838ZM38.9404 61.2402C38.9404 60.4062 38.7627 59.7477 38.4072 59.2646C38.0518 58.7816 37.5641 58.54 36.9443 58.54C36.1787 58.54 35.6045 58.8796 35.2217 59.5586V63.0928C35.5999 63.7673 36.1787 64.1045 36.958 64.1045C37.5641 64.1045 38.0449 63.8652 38.4004 63.3867C38.7604 62.9036 38.9404 62.1882 38.9404 61.2402ZM43.1924 65H41.9277V57.6035H43.1924V65ZM41.8252 55.6416C41.8252 55.4365 41.8867 55.2633 42.0098 55.1221C42.1374 54.9808 42.3242 54.9102 42.5703 54.9102C42.8164 54.9102 43.0033 54.9808 43.1309 55.1221C43.2585 55.2633 43.3223 55.4365 43.3223 55.6416C43.3223 55.8467 43.2585 56.0176 43.1309 56.1543C43.0033 56.291 42.8164 56.3594 42.5703 56.3594C42.3242 56.3594 42.1374 56.291 42.0098 56.1543C41.8867 56.0176 41.8252 55.8467 41.8252 55.6416ZM48.1895 64.1045C48.6406 64.1045 49.0348 63.9678 49.3721 63.6943C49.7093 63.4209 49.8962 63.0791 49.9326 62.6689H51.1289C51.1061 63.0928 50.9603 63.4961 50.6914 63.8789C50.4225 64.2617 50.0625 64.5671 49.6113 64.7949C49.1647 65.0228 48.6908 65.1367 48.1895 65.1367C47.1823 65.1367 46.3802 64.8018 45.7832 64.1318C45.1908 63.4574 44.8945 62.5368 44.8945 61.3701V61.1582C44.8945 60.4382 45.0267 59.7979 45.291 59.2373C45.5553 58.6768 45.9336 58.2415 46.4258 57.9316C46.9225 57.6217 47.5081 57.4668 48.1826 57.4668C49.012 57.4668 49.7002 57.7152 50.2471 58.2119C50.7985 58.7087 51.0924 59.3535 51.1289 60.1465H49.9326C49.8962 59.668 49.7139 59.276 49.3857 58.9707C49.0622 58.6608 48.6611 58.5059 48.1826 58.5059C47.54 58.5059 47.041 58.7383 46.6855 59.2031C46.3346 59.6634 46.1592 60.3311 46.1592 61.2061V61.4453C46.1592 62.2975 46.3346 62.9538 46.6855 63.4141C47.0365 63.8743 47.5378 64.1045 48.1895 64.1045ZM52.2158 61.2334C52.2158 60.5088 52.3571 59.8571 52.6396 59.2783C52.9268 58.6995 53.3232 58.2529 53.8291 57.9385C54.3395 57.624 54.9206 57.4668 55.5723 57.4668C56.5794 57.4668 57.3929 57.8154 58.0127 58.5127C58.637 59.21 58.9492 60.1374 58.9492 61.2949V61.3838C58.9492 62.1038 58.8102 62.751 58.5322 63.3252C58.2588 63.8949 57.8646 64.3392 57.3496 64.6582C56.8392 64.9772 56.2513 65.1367 55.5859 65.1367C54.5833 65.1367 53.7699 64.7881 53.1455 64.0908C52.5257 63.3936 52.2158 62.4707 52.2158 61.3223V61.2334ZM53.4873 61.3838C53.4873 62.2041 53.6764 62.8626 54.0547 63.3594C54.4375 63.8561 54.9479 64.1045 55.5859 64.1045C56.2285 64.1045 56.7389 63.8538 57.1172 63.3525C57.4954 62.8467 57.6846 62.1403 57.6846 61.2334C57.6846 60.4222 57.4909 59.766 57.1035 59.2646C56.7207 58.7588 56.2103 58.5059 55.5723 58.5059C54.9479 58.5059 54.4443 58.7542 54.0615 59.251C53.6787 59.7477 53.4873 60.4587 53.4873 61.3838ZM60.5625 64.3369C60.5625 64.1182 60.6263 63.9359 60.7539 63.79C60.8861 63.6442 61.082 63.5713 61.3418 63.5713C61.6016 63.5713 61.7975 63.6442 61.9297 63.79C62.0664 63.9359 62.1348 64.1182 62.1348 64.3369C62.1348 64.5465 62.0664 64.722 61.9297 64.8633C61.7975 65.0046 61.6016 65.0752 61.3418 65.0752C61.082 65.0752 60.8861 65.0046 60.7539 64.8633C60.6263 64.722 60.5625 64.5465 60.5625 64.3369ZM65.6006 65H64.3359V54.5H65.6006V65ZM69.0049 65H67.7402V57.6035H69.0049V65ZM67.6377 55.6416C67.6377 55.4365 67.6992 55.2633 67.8223 55.1221C67.9499 54.9808 68.1367 54.9102 68.3828 54.9102C68.6289 54.9102 68.8158 54.9808 68.9434 55.1221C69.071 55.2633 69.1348 55.4365 69.1348 55.6416C69.1348 55.8467 69.071 56.0176 68.9434 56.1543C68.8158 56.291 68.6289 56.3594 68.3828 56.3594C68.1367 56.3594 67.9499 56.291 67.8223 56.1543C67.6992 56.0176 67.6377 55.8467 67.6377 55.6416ZM72.2314 57.6035L72.2725 58.5332C72.8376 57.8223 73.5758 57.4668 74.4873 57.4668C76.0505 57.4668 76.8389 58.3486 76.8525 60.1123V65H75.5879V60.1055C75.5833 59.5723 75.4603 59.1781 75.2188 58.9229C74.9818 58.6676 74.6104 58.54 74.1045 58.54C73.6943 58.54 73.3343 58.6494 73.0244 58.8682C72.7145 59.0869 72.473 59.374 72.2998 59.7295V65H71.0352V57.6035H72.2314ZM80.8242 61.5752L80.0312 62.4023V65H78.7666V54.5H80.0312V60.8506L80.708 60.0371L83.0117 57.6035H84.5498L81.6719 60.6934L84.8848 65H83.4014L80.8242 61.5752ZM86.1084 65.8545H85.0215L89.1777 55.0469H90.2578L86.1084 65.8545ZM96.1914 65C96.1185 64.8542 96.0592 64.5944 96.0137 64.2207C95.4258 64.8314 94.724 65.1367 93.9082 65.1367C93.179 65.1367 92.5798 64.9316 92.1104 64.5215C91.6455 64.1068 91.4131 63.5827 91.4131 62.9492C91.4131 62.179 91.7048 61.582 92.2881 61.1582C92.876 60.7298 93.7008 60.5156 94.7627 60.5156H95.9932V59.9346C95.9932 59.4925 95.861 59.1416 95.5967 58.8818C95.3324 58.6175 94.9427 58.4854 94.4277 58.4854C93.9766 58.4854 93.5983 58.5993 93.293 58.8271C92.9876 59.055 92.835 59.3307 92.835 59.6543H91.5635C91.5635 59.2852 91.6934 58.9297 91.9531 58.5879C92.2174 58.2415 92.5729 57.9681 93.0195 57.7676C93.4707 57.5671 93.9652 57.4668 94.5029 57.4668C95.3551 57.4668 96.0228 57.681 96.5059 58.1094C96.9889 58.5332 97.2396 59.1188 97.2578 59.8662V63.2705C97.2578 63.9495 97.3444 64.4896 97.5176 64.8906V65H96.1914ZM94.0928 64.0361C94.4893 64.0361 94.8652 63.9336 95.2207 63.7285C95.5762 63.5234 95.8337 63.2568 95.9932 62.9287V61.4111H95.002C93.4525 61.4111 92.6777 61.8646 92.6777 62.7715C92.6777 63.168 92.8099 63.4779 93.0742 63.7012C93.3385 63.9245 93.6781 64.0361 94.0928 64.0361ZM104.449 61.6572H105.83V62.6895H104.449V65H103.178V62.6895H98.6455V61.9443L103.103 55.0469H104.449V61.6572ZM100.081 61.6572H103.178V56.7764L103.027 57.0498L100.081 61.6572ZM106.794 61.2402C106.794 60.1055 107.063 59.194 107.601 58.5059C108.138 57.8132 108.842 57.4668 109.713 57.4668C110.579 57.4668 111.265 57.763 111.771 58.3555V54.5H113.035V65H111.873L111.812 64.207C111.306 64.8268 110.602 65.1367 109.699 65.1367C108.842 65.1367 108.143 64.7858 107.601 64.084C107.063 63.3822 106.794 62.4661 106.794 61.3359V61.2402ZM108.059 61.3838C108.059 62.2223 108.232 62.8786 108.578 63.3525C108.924 63.8265 109.403 64.0635 110.014 64.0635C110.816 64.0635 111.401 63.7035 111.771 62.9834V59.5859C111.392 58.8887 110.811 58.54 110.027 58.54C109.408 58.54 108.924 58.7793 108.578 59.2578C108.232 59.7363 108.059 60.445 108.059 61.3838ZM115.626 65V58.5811H114.457V57.6035H115.626V56.8447C115.626 56.0518 115.838 55.4388 116.262 55.0059C116.686 54.5729 117.285 54.3564 118.06 54.3564C118.351 54.3564 118.641 54.3952 118.928 54.4727L118.859 55.498C118.645 55.457 118.417 55.4365 118.176 55.4365C117.766 55.4365 117.449 55.5573 117.226 55.7988C117.002 56.0358 116.891 56.3776 116.891 56.8242V57.6035H118.47V58.5811H116.891V65H115.626ZM121.58 59.4082H122.53C123.127 59.3991 123.597 59.2419 123.938 58.9365C124.28 58.6312 124.451 58.2188 124.451 57.6992C124.451 56.5326 123.87 55.9492 122.708 55.9492C122.161 55.9492 121.724 56.1064 121.396 56.4209C121.072 56.7308 120.91 57.1432 120.91 57.6582H119.646C119.646 56.8698 119.933 56.2158 120.507 55.6963C121.086 55.1722 121.819 54.9102 122.708 54.9102C123.647 54.9102 124.383 55.1585 124.916 55.6553C125.449 56.152 125.716 56.8424 125.716 57.7266C125.716 58.1595 125.575 58.5788 125.292 58.9844C125.014 59.39 124.633 59.693 124.15 59.8936C124.697 60.0667 125.119 60.3538 125.415 60.7549C125.716 61.1559 125.866 61.6458 125.866 62.2246C125.866 63.1178 125.575 63.8265 124.991 64.3506C124.408 64.8747 123.649 65.1367 122.715 65.1367C121.781 65.1367 121.02 64.8838 120.432 64.3779C119.848 63.8721 119.557 63.2044 119.557 62.375H120.828C120.828 62.8991 120.999 63.3184 121.341 63.6328C121.683 63.9473 122.141 64.1045 122.715 64.1045C123.326 64.1045 123.793 63.945 124.116 63.626C124.44 63.307 124.602 62.849 124.602 62.252C124.602 61.6732 124.424 61.2288 124.068 60.9189C123.713 60.609 123.2 60.4495 122.53 60.4404H121.58V59.4082ZM127.425 61.2402C127.425 60.1055 127.694 59.194 128.231 58.5059C128.769 57.8132 129.473 57.4668 130.344 57.4668C131.21 57.4668 131.896 57.763 132.401 58.3555V54.5H133.666V65H132.504L132.442 64.207C131.937 64.8268 131.232 65.1367 130.33 65.1367C129.473 65.1367 128.774 64.7858 128.231 64.084C127.694 63.3822 127.425 62.4661 127.425 61.3359V61.2402ZM128.689 61.3838C128.689 62.2223 128.863 62.8786 129.209 63.3525C129.555 63.8265 130.034 64.0635 130.645 64.0635C131.447 64.0635 132.032 63.7035 132.401 62.9834V59.5859C132.023 58.8887 131.442 58.54 130.658 58.54C130.038 58.54 129.555 58.7793 129.209 59.2578C128.863 59.7363 128.689 60.445 128.689 61.3838ZM140.468 55.04V56.1133H140.235C139.251 56.1315 138.467 56.4232 137.884 56.9883C137.3 57.5534 136.963 58.3486 136.872 59.374C137.396 58.7725 138.112 58.4717 139.019 58.4717C139.884 58.4717 140.575 58.777 141.09 59.3877C141.609 59.9984 141.869 60.7868 141.869 61.7529C141.869 62.7783 141.589 63.5986 141.028 64.2139C140.472 64.8291 139.725 65.1367 138.786 65.1367C137.834 65.1367 137.061 64.7721 136.469 64.043C135.876 63.3092 135.58 62.3659 135.58 61.2129V60.7275C135.58 58.8955 135.97 57.4964 136.749 56.5303C137.533 55.5596 138.697 55.0628 140.242 55.04H140.468ZM138.807 59.5244C138.374 59.5244 137.975 59.6543 137.61 59.9141C137.246 60.1738 136.993 60.4997 136.852 60.8916V61.3564C136.852 62.1768 137.036 62.8376 137.405 63.3389C137.774 63.8402 138.235 64.0908 138.786 64.0908C139.356 64.0908 139.802 63.8812 140.126 63.4619C140.454 63.0426 140.618 62.4935 140.618 61.8145C140.618 61.1309 140.452 60.5794 140.119 60.1602C139.791 59.7363 139.354 59.5244 138.807 59.5244ZM143.947 60.0098L144.453 55.0469H149.553V56.2158H145.526L145.226 58.9297C145.713 58.6426 146.267 58.499 146.887 58.499C147.794 58.499 148.514 58.7998 149.047 59.4014C149.58 59.9984 149.847 60.8073 149.847 61.8281C149.847 62.8535 149.569 63.6624 149.013 64.2549C148.461 64.8428 147.689 65.1367 146.695 65.1367C145.816 65.1367 145.098 64.8929 144.542 64.4053C143.986 63.9176 143.669 63.2432 143.592 62.3818H144.788C144.866 62.9515 145.068 63.3822 145.396 63.6738C145.725 63.9609 146.158 64.1045 146.695 64.1045C147.283 64.1045 147.743 63.904 148.076 63.5029C148.413 63.1019 148.582 62.5482 148.582 61.8418C148.582 61.1764 148.4 60.6432 148.035 60.2422C147.675 59.8366 147.194 59.6338 146.593 59.6338C146.041 59.6338 145.608 59.7546 145.294 59.9961L144.959 60.2695L143.947 60.0098ZM152.622 58.499C153.183 57.8109 153.912 57.4668 154.81 57.4668C156.373 57.4668 157.161 58.3486 157.175 60.1123V65H155.91V60.1055C155.906 59.5723 155.783 59.1781 155.541 58.9229C155.304 58.6676 154.933 58.54 154.427 58.54C154.017 58.54 153.657 58.6494 153.347 58.8682C153.037 59.0869 152.795 59.374 152.622 59.7295V65H151.357V54.5H152.622V58.499ZM158.768 61.2402C158.768 60.0872 159.034 59.1712 159.567 58.4922C160.101 57.8086 160.807 57.4668 161.687 57.4668C162.589 57.4668 163.293 57.7858 163.799 58.4238L163.86 57.6035H165.016V64.8223C165.016 65.7793 164.731 66.5335 164.161 67.085C163.596 67.6364 162.835 67.9121 161.878 67.9121C161.345 67.9121 160.823 67.7982 160.312 67.5703C159.802 67.3424 159.412 67.0303 159.144 66.6338L159.8 65.875C160.342 66.5449 161.005 66.8799 161.789 66.8799C162.404 66.8799 162.883 66.7067 163.225 66.3604C163.571 66.014 163.744 65.5264 163.744 64.8975V64.2617C163.238 64.8451 162.548 65.1367 161.673 65.1367C160.807 65.1367 160.105 64.7881 159.567 64.0908C159.034 63.3936 158.768 62.4434 158.768 61.2402ZM160.039 61.3838C160.039 62.2178 160.21 62.874 160.552 63.3525C160.894 63.8265 161.372 64.0635 161.987 64.0635C162.785 64.0635 163.37 63.7012 163.744 62.9766V59.5996C163.357 58.8932 162.776 58.54 162.001 58.54C161.386 58.54 160.905 58.7793 160.559 59.2578C160.212 59.7363 160.039 60.445 160.039 61.3838Z" fill="#51A1FF"/>
<defs>
<filter id="filter0_d" x="7" y="0" width="288" height="95" filterUnits="userSpaceOnUse" color-interpolation-filters="sRGB">
<feFlood flood-opacity="0" result="BackgroundImageFix"/>
<feColorMatrix in="SourceAlpha" type="matrix" values="0 0 0 0 0 0 0 0 0 0 0 0 0 0 0 0 0 0 127 0"/>
<feOffset dy="4"/>
<feGaussianBlur stdDeviation="2"/>
<feColorMatrix type="matrix" values="0 0 0 0 0 0 0 0 0 0 0 0 0 0 0 0 0 0 0.25 0"/>
<feBlend mode="normal" in2="BackgroundImageFix" result="effect1_dropShadow"/>
<feBlend mode="normal" in="SourceGraphic" in2="effect1_dropShadow" result="shape"/>
</filter>
<filter id="filter1_d" x="9.89697" y="67.8772" width="33.5699" height="35.675" filterUnits="userSpaceOnUse" color-interpolation-filters="sRGB">
<feFlood flood-opacity="0" result="BackgroundImageFix"/>
<feColorMatrix in="SourceAlpha" type="matrix" values="0 0 0 0 0 0 0 0 0 0 0 0 0 0 0 0 0 0 127 0"/>
<feOffset dy="4"/>
<feGaussianBlur stdDeviation="2"/>
<feColorMatrix type="matrix" values="0 0 0 0 0 0 0 0 0 0 0 0 0 0 0 0 0 0 0.25 0"/>
<feBlend mode="normal" in2="BackgroundImageFix" result="effect1_dropShadow"/>
<feBlend mode="normal" in="SourceGraphic" in2="effect1_dropShadow" result="shape"/>
</filter>
</defs>
</svg>
