<?xml version="1.0" standalone="no"?>
<!DOCTYPE svg PUBLIC "-//W3C//DTD SVG 20010904//EN"
 "http://www.w3.org/TR/2001/REC-SVG-20010904/DTD/svg10.dtd">
<svg version="1.0" xmlns="http://www.w3.org/2000/svg"
 width="700.000000pt" height="700.000000pt" viewBox="0 0 700.000000 700.000000"
 preserveAspectRatio="xMidYMid meet">
<metadata>
Created by potrace 1.11, written by Peter Selinger 2001-2013
</metadata>
<g transform="translate(0.000000,700.000000) scale(0.100000,-0.100000)"
fill="#000000" stroke="none">
<path d="M1872 6759 c-504 -59 -930 -420 -1066 -904 -24 -84 -759 -3950 -793
-4170 -19 -124 -12 -322 16 -445 57 -252 170 -459 351 -640 176 -177 371 -283
628 -342 l97 -22 1945 -4 c1357 -2 1978 0 2052 8 364 37 682 217 897 509 77
105 162 277 196 396 23 84 758 3952 791 4170 19 118 14 309 -11 425 -54 259
-171 476 -355 661 -181 182 -396 294 -669 351 -68 14 -3962 21 -4079 7z m1803
-2099 c133 -16 237 -46 361 -106 355 -170 582 -494 624 -889 42 -387 -146
-793 -468 -1013 -192 -131 -362 -188 -592 -199 -780 -36 -1350 748 -1081 1487
143 392 498 671 914 719 103 12 141 12 242 1z"/>
</g>
</svg>
