<svg width="108" height="50" viewBox="0 0 108 50" fill="none" xmlns="http://www.w3.org/2000/svg">
<path d="M6.09323 7.79955C6.96387 3.27224 10.9253 0 15.5356 0H97.8755C103.914 0 108.458 5.50116 107.318 11.4312L101.401 42.2004C100.53 46.7278 96.5686 50 91.9584 50H9.61844C3.57972 50 -0.964327 44.4988 0.17607 38.5688L6.09323 7.79955Z" fill="black"/>
<path d="M49 33.8039V16.1525H53.3801C54.4407 16.1525 55.2833 16.3487 55.908 16.7409C56.5472 17.1186 57.0121 17.6707 57.3027 18.3971C57.5932 19.1235 57.7385 20.0024 57.7385 21.0339C57.7385 21.9637 57.5714 22.77 57.2373 23.4528C56.9177 24.1356 56.4383 24.6659 55.799 25.0436C55.1598 25.4068 54.3608 25.5884 53.4019 25.5884H51.4625V33.8039H49ZM51.4625 23.8232H52.5956C53.3075 23.8232 53.8668 23.7433 54.2736 23.5835C54.6804 23.4237 54.9709 23.1477 55.1453 22.7554C55.3196 22.3487 55.4068 21.7821 55.4068 21.0557C55.4068 20.2131 55.3414 19.5666 55.2107 19.1162C55.0944 18.6659 54.8402 18.3535 54.4479 18.1792C54.0557 18.0048 53.4455 17.9177 52.6174 17.9177H51.4625V23.8232Z" fill="white"/>
<path d="M59.601 33.8039V16.1525H62.0199V33.8039H59.601Z" fill="white"/>
<path d="M69.2994 34C68.05 34 67.0766 33.7385 66.3793 33.2155C65.6965 32.6925 65.217 31.9879 64.941 31.1017C64.6795 30.2155 64.5488 29.2276 64.5488 28.138V21.9056C64.5488 20.7143 64.6795 19.6755 64.941 18.7893C65.217 17.9031 65.6965 17.2203 66.3793 16.7409C67.0766 16.247 68.05 16 69.2994 16C70.4035 16 71.2752 16.2034 71.9144 16.6102C72.5681 17.0169 73.033 17.5981 73.3091 18.3535C73.5996 19.109 73.7449 20.0169 73.7449 21.0775V22.4722H71.4132V21.23C71.4132 20.5763 71.3769 20.0024 71.3042 19.5085C71.2461 19 71.0718 18.6077 70.7812 18.3317C70.4907 18.0557 70.004 17.9177 69.3212 17.9177C68.6238 17.9177 68.1154 18.0702 67.7957 18.3753C67.4761 18.6659 67.2655 19.0872 67.1638 19.6392C67.0766 20.1768 67.033 20.8087 67.033 21.5351V28.5303C67.033 29.4165 67.1057 30.1211 67.2509 30.6441C67.3962 31.1525 67.6359 31.5157 67.9701 31.7337C68.3042 31.9516 68.7546 32.0605 69.3212 32.0605C69.9894 32.0605 70.4689 31.9153 70.7594 31.6247C71.05 31.3196 71.2316 30.9056 71.3042 30.3826C71.3769 29.8596 71.4132 29.2494 71.4132 28.5521V27.2446H73.7449V28.5521C73.7449 29.6271 73.6141 30.5787 73.3526 31.4068C73.0911 32.2203 72.6408 32.8596 72.0016 33.3245C71.3623 33.7748 70.4616 34 69.2994 34Z" fill="white"/>
<path d="M80.6016 34C79.4104 34 78.4588 33.7676 77.7469 33.3027C77.035 32.8378 76.5266 32.1768 76.2215 31.3196C75.9164 30.4479 75.7639 29.431 75.7639 28.2688V21.5787C75.7639 20.4165 75.9164 19.4213 76.2215 18.5932C76.5411 17.7506 77.0496 17.1114 77.7469 16.6755C78.4588 16.2252 79.4104 16 80.6016 16C81.7929 16 82.7372 16.2252 83.4346 16.6755C84.1319 17.1259 84.6331 17.7651 84.9382 18.5932C85.2578 19.4213 85.4176 20.4165 85.4176 21.5787V28.2906C85.4176 29.4383 85.2578 30.4407 84.9382 31.2978C84.6331 32.155 84.1319 32.8232 83.4346 33.3027C82.7372 33.7676 81.7929 34 80.6016 34ZM80.6016 32.0605C81.2554 32.0605 81.7493 31.9298 82.0835 31.6683C82.4176 31.3923 82.6428 31.0145 82.759 30.5351C82.8752 30.0412 82.9334 29.4673 82.9334 28.8136V21.0775C82.9334 20.4237 82.8752 19.8644 82.759 19.3995C82.6428 18.9201 82.4176 18.5569 82.0835 18.3099C81.7493 18.0484 81.2554 17.9177 80.6016 17.9177C79.9479 17.9177 79.4467 18.0484 79.098 18.3099C78.7639 18.5569 78.5387 18.9201 78.4225 19.3995C78.3062 19.8644 78.2481 20.4237 78.2481 21.0775V28.8136C78.2481 29.4673 78.3062 30.0412 78.4225 30.5351C78.5387 31.0145 78.7639 31.3923 79.098 31.6683C79.4467 31.9298 79.9479 32.0605 80.6016 32.0605Z" fill="white"/>
<circle cx="28.1318" cy="25" r="9" fill="white"/>
</svg>
