<svg fill="none" xmlns="http://www.w3.org/2000/svg" viewBox="0 0 153 50">
  <path d="M6.09323 7.79955C6.96387 3.27224 10.9253 0 15.5356 0H142.876c6.038 0 10.582 5.50116 9.442 11.4312l-5.917 30.7692C145.53 46.7278 141.569 50 136.958 50H9.61844C3.57972 50-.964327 44.4988.17607 38.5688L6.09323 7.79955z" fill="#000"/>
  <circle cx="28.1316" cy="25" fill="#fff" r="9"/>
  <path d="M52 33.974v-17.82h4.422c1.0707 0 1.9213.198 2.552.594.6453.3813 1.1147.9387 1.408 1.672.2933.7333.44 1.6207.44 2.662 0 .9387-.1687 1.7527-.506 2.442-.3227.6893-.8067 1.2247-1.452 1.606-.6453.3667-1.452.55-2.42.55h-1.958v8.294H52zm2.486-10.076h1.144c.7187 0 1.2833-.0807 1.694-.242.4107-.1613.704-.44.88-.836.176-.4107.264-.9827.264-1.716 0-.8507-.066-1.5033-.198-1.958-.1173-.4547-.374-.77-.77-.946-.396-.176-1.012-.264-1.848-.264h-1.166v5.962zM62.7023 33.974v-17.82h2.442v17.82h-2.442zM72.4933 34.172c-1.2613 0-2.244-.264-2.948-.792-.6893-.528-1.1733-1.2393-1.452-2.134-.264-.8947-.396-1.892-.396-2.992v-6.292c0-1.2027.132-2.2513.396-3.146.2787-.8947.7627-1.584 1.452-2.068.704-.4987 1.6867-.748 2.948-.748 1.1147 0 1.9947.2053 2.64.616.66.4107 1.1294.9973 1.408 1.76.2934.7627.44 1.6793.44 2.75v1.408h-2.354V21.28c0-.66-.0366-1.2393-.11-1.738-.0586-.5133-.2346-.9093-.528-1.188-.2933-.2787-.7846-.418-1.474-.418-.704 0-1.2173.154-1.54.462-.3226.2933-.5353.7187-.638 1.276-.088.5427-.132 1.1807-.132 1.914v7.062c0 .8947.0734 1.606.22 2.134.1467.5133.3887.88.726 1.1.3374.22.792.33 1.364.33.6747 0 1.1587-.1467 1.452-.44.2934-.308.4767-.726.55-1.254.0734-.528.11-1.144.11-1.848v-1.32h2.354v1.32c0 1.0853-.132 2.046-.396 2.882-.264.8213-.7186 1.4667-1.364 1.936-.6453.4547-1.5546.682-2.728.682zM83.9036 34.172c-1.2027 0-2.1633-.2347-2.882-.704-.7187-.4693-1.232-1.1367-1.54-2.002-.308-.88-.462-1.9067-.462-3.08v-6.754c0-1.1733.154-2.178.462-3.014.3227-.8507.836-1.496 1.54-1.936.7187-.4547 1.6793-.682 2.882-.682s2.156.2273 2.86.682c.704.4547 1.21 1.1 1.518 1.936.3227.836.484 1.8407.484 3.014v6.776c0 1.1587-.1613 2.1707-.484 3.036-.308.8653-.814 1.54-1.518 2.024-.704.4693-1.6573.704-2.86.704zm0-1.958c.66 0 1.1587-.132 1.496-.396.3373-.2787.5647-.66.682-1.144.1173-.4987.176-1.078.176-1.738v-7.81c0-.66-.0587-1.2247-.176-1.694-.1173-.484-.3447-.8507-.682-1.1-.3373-.264-.836-.396-1.496-.396s-1.166.132-1.518.396c-.3373.2493-.5647.616-.682 1.1-.1173.4693-.176 1.034-.176 1.694v7.81c0 .66.0587 1.2393.176 1.738.1173.484.3447.8653.682 1.144.352.264.858.396 1.518.396zM90.901 33.974v-2.618h2.354v2.618h-2.354zM95.3555 33.974v-17.82h2.486v16.038h4.5535v1.782h-7.0395zM104.232 33.974v-17.82h2.442v17.82h-2.442zM109.557 33.974v-17.82h1.694l5.06 11.836V16.154h2.068v17.82h-1.584l-5.126-12.166v12.166h-2.112zM121.18 33.974v-17.82h2.486v8.404l4.092-8.404h2.31l-3.52 7.854 4.092 9.966h-2.42l-3.41-8.36-1.144 2.068v6.292h-2.486z" fill="#fff"/>
</svg>